<?xml version="1.0"?>
<svg xmlns="http://www.w3.org/2000/svg" width="512" height="512" viewBox="0 0 128 128"><g><path d="M109.022,56.6,99.856,44.312a13.057,13.057,0,0,0-23.522,7.807c0,1.414-.06,2.856-.15,4.307A14.832,14.832,0,0,1,70.75,44.9V1.747A1.751,1.751,0,0,0,69,0H59a1.751,1.751,0,0,0-1.75,1.75V44.885a14.825,14.825,0,0,1-5.435,11.527c-.09-1.445-.15-2.883-.15-4.293a13.056,13.056,0,0,0-23.521-7.807L18.978,56.6A96.257,96.257,0,0,0,0,113.782,14.231,14.231,0,0,0,14.215,128H43.688A14.231,14.231,0,0,0,57.9,113.782V94.149a74.062,74.062,0,0,0-3.125-21.294l-.135-.449c-.144-.479-.268-.963-.4-1.445l1.9-1.177a14.858,14.858,0,0,1,15.713,0l1.9,1.174c-.132.483-.257.968-.4,1.448l-.135.449A74.062,74.062,0,0,0,70.1,94.149v19.633A14.231,14.231,0,0,0,84.312,128h29.473A14.231,14.231,0,0,0,128,113.782,96.257,96.257,0,0,0,109.022,56.6ZM51.29,73.412l.135.449A70.558,70.558,0,0,1,54.4,94.149v19.633A10.727,10.727,0,0,1,43.688,124.5H14.215A10.727,10.727,0,0,1,3.5,113.782a92.732,92.732,0,0,1,18.284-55.09l9.165-12.287a9.556,9.556,0,0,1,17.216,5.714c0,2.133.119,4.321.314,6.514L32.344,68.58a6.634,6.634,0,0,0-2.161,9.138l.065.106a6.759,6.759,0,0,0,9.335,2.217c3.058-1.9,7.364-4.565,11.56-7.162C51.194,73.056,51.238,73.235,51.29,73.412Zm3.014-6.6c-5.467,3.382-12.256,7.583-16.566,10.259a3.233,3.233,0,0,1-2.458.4,3.29,3.29,0,0,1-2.055-1.489l-.066-.106a3.135,3.135,0,0,1,1.022-4.317l17.8-10.975a18.32,18.32,0,0,0,8.765-15.7V3.5h6.5V44.9A18.325,18.325,0,0,0,76,60.586l17.71,10.946a3.25,3.25,0,1,1-3.418,5.528L73.7,66.806A18.336,18.336,0,0,0,54.3,66.808ZM113.785,124.5H84.312A10.727,10.727,0,0,1,73.6,113.782V94.149a70.558,70.558,0,0,1,2.978-20.288l.134-.449c.054-.178.1-.359.149-.538l11.59,7.164a6.75,6.75,0,1,0,7.1-11.483h0L79.52,58.649c.2-2.2.314-4.393.314-6.53a9.557,9.557,0,0,1,17.217-5.714l9.165,12.287a92.732,92.732,0,0,1,18.284,55.09A10.727,10.727,0,0,1,113.785,124.5Z"/><path d="M28.116,93.284l-7.668-1.452A1.75,1.75,0,1,0,19.8,95.27l7.668,1.453a22.652,22.652,0,0,0,19.216-5.281l2.152-1.871a1.75,1.75,0,0,0-2.3-2.642L44.385,88.8A19.24,19.24,0,0,1,28.116,93.284Z"/><path d="M46.537,100.635l-2.152,1.871a19.24,19.24,0,0,1-16.269,4.484l-7.668-1.452a1.75,1.75,0,1,0-.651,3.438l7.668,1.452a22.641,22.641,0,0,0,19.216-5.28l2.152-1.872a1.75,1.75,0,1,0-2.3-2.641Z"/><path d="M107.552,91.832l-7.668,1.452A19.242,19.242,0,0,1,83.615,88.8l-2.152-1.871a1.75,1.75,0,1,0-2.3,2.642l2.152,1.871a22.652,22.652,0,0,0,19.216,5.281L108.2,95.27a1.75,1.75,0,1,0-.651-3.438Z"/><path d="M107.552,105.538l-7.668,1.452a19.236,19.236,0,0,1-16.269-4.484l-2.152-1.871a1.75,1.75,0,1,0-2.3,2.641l2.152,1.872a22.641,22.641,0,0,0,19.216,5.28l7.668-1.452a1.75,1.75,0,1,0-.651-3.438Z"/></g></svg>
