<svg id="Capa_1" enable-background="new 0 0 512.156 512.156" height="512" viewBox="0 0 512.156 512.156" width="512" xmlns="http://www.w3.org/2000/svg"><g><path d="m39.302 101.342c37.5-24.963 116.775-54.114 216.776-54.114s179.276 29.151 216.776 54.114c3.474 2.312 8.121 1.335 10.399-2.087 2.295-3.448 1.361-8.104-2.087-10.4-51.677-34.4-140.029-56.628-225.088-56.628s-173.411 22.228-225.088 56.628c-3.448 2.295-4.382 6.951-2.087 10.4 2.295 3.447 6.952 4.382 10.399 2.087zm368.534 233.596h-29.69v-29.691c0-7.27-5.915-13.185-13.187-13.185h-31.504c-7.271 0-13.187 5.915-13.187 13.185v29.691h-29.69c-7.271 0-13.186 5.915-13.186 13.186v31.504c0 7.271 5.915 13.186 13.186 13.186h29.69v29.69c0 7.271 5.916 13.186 13.187 13.186h31.504c7.271 0 13.187-5.915 13.187-13.186v-29.69h29.69c7.271 0 13.186-5.915 13.186-13.186v-31.504c0-7.272-5.915-13.186-13.186-13.186zm-1.814 42.876h-29.69c-7.271 0-13.186 5.915-13.186 13.187v29.69h-27.877v-29.69c0-7.271-5.915-13.187-13.186-13.187h-29.69v-27.877h29.69c7.271 0 13.186-5.915 13.186-13.186v-29.69h27.877v29.69c0 7.271 5.915 13.186 13.186 13.186h29.69zm94.801-180.706c-9.372-12.716-21.173-25.039-35.077-36.627-3.182-2.649-7.911-2.22-10.563.96-2.652 3.182-2.222 7.911.96 10.563 12.979 10.816 23.948 22.256 32.605 34.003 11.188 15.179 11.188 35.577 0 50.757-10.891 14.776-25.759 29.318-43.264 42.379-11.926-17.68-28.589-31.91-48.153-40.861 1.673-8.84 2.534-17.859 2.534-26.897 0-49.074-24.718-92.478-62.352-118.435 32.332 8.289 63.206 21.402 90.748 38.829 3.501 2.215 8.133 1.174 10.348-2.327s1.173-8.134-2.328-10.349c-52.49-33.214-116.488-51.505-180.203-51.505-106.606 0-201.671 51.067-244.744 109.509-15.112 20.503-15.112 48.054 0 68.558 12.669 17.19 30.24 34.053 50.813 48.767 3.377 2.414 8.058 1.626 10.463-1.737 2.41-3.369 1.632-8.054-1.737-10.464-19.306-13.808-35.719-29.529-47.464-45.466-11.188-15.18-11.188-35.578 0-50.757 27.401-37.179 81.443-75.112 151.21-93.041-83.561 57.66-82.49 179.963-.335 236.768-25.951-6.691-50.987-16.514-74.256-29.246-3.632-1.99-8.191-.654-10.18 2.978-1.988 3.634-.654 8.191 2.979 10.18 42.845 23.445 91.392 37.477 140.81 40.766 5.342 59.072 55.13 105.515 115.569 105.515 63.991 0 116.052-52.061 116.052-116.053 0-18.565-4.389-36.121-12.173-51.697 19.27-14.197 35.696-30.18 47.736-46.514 15.113-20.503 15.113-48.054.002-68.556zm-267.526 161.043c-60.988-10.834-106.006-63.928-106.006-126.765 0-71.014 57.773-128.787 128.787-128.787s128.787 57.773 128.787 128.787c0 7.21-.61 14.404-1.798 21.482-22.115-6.759-45.976-6.733-68.105.115 2.513-6.849 3.843-14.141 3.843-21.597 0-34.588-28.139-62.727-62.727-62.727s-62.727 28.139-62.727 62.727c0 34.646 28.279 62.967 63.183 62.715-13.593 18.009-22.067 40.085-23.237 64.05zm70.508-126.765c0 11.739-4.291 22.954-12.083 31.705-6.344 3.633-12.312 7.85-17.835 12.572-5.66 2.28-11.643 3.449-17.808 3.449-26.316 0-47.727-21.41-47.727-47.727s21.41-47.727 47.727-47.727 47.726 21.411 47.726 47.728zm45.402 233.543c-55.72 0-101.052-45.332-101.052-101.053 0-55.72 45.332-101.052 101.052-101.052s101.052 45.332 101.052 101.052c0 55.721-45.332 101.053-101.052 101.053z"/></g></svg>