<svg id="Layer_5" enable-background="new 0 0 64 64" height="512" viewBox="0 0 64 64" width="512" xmlns="http://www.w3.org/2000/svg"><g><path d="m46 53c-1.654 0-3 1.346-3 3s1.346 3 3 3 3-1.346 3-3-1.346-3-3-3zm0 4c-.551 0-1-.449-1-1s.449-1 1-1 1 .449 1 1-.449 1-1 1z"/><path d="m18 41c-4.962 0-9 4.038-9 9s4.038 9 9 9 9-4.038 9-9-4.038-9-9-9zm0 10c-.551 0-1-.449-1-1s.449-1 1-1 1 .449 1 1-.449 1-1 1zm1.285-3.699c-.093-.044-.188-.082-.285-.116v-4.105c1.183.17 2.269.636 3.184 1.322zm-2.285-.117c-.098.035-.193.072-.285.116l-2.899-2.899c.915-.686 2.001-1.151 3.184-1.322zm-1.699 1.531c-.044.093-.082.188-.116.285h-4.105c.17-1.183.636-2.269 1.322-3.184zm-.117 2.285c.035.098.072.193.116.285l-2.899 2.899c-.685-.915-1.151-2.001-1.321-3.184zm1.531 1.699c.093.044.188.081.285.116v4.104c-1.183-.17-2.269-.636-3.184-1.322zm2.285.117c.098-.035.193-.072.285-.116l2.899 2.899c-.915.685-2.001 1.151-3.184 1.321zm1.699-1.531c.044-.093.082-.188.116-.285h4.104c-.17 1.183-.636 2.269-1.322 3.184zm.117-2.285c-.035-.098-.072-.193-.116-.285l2.899-2.899c.686.915 1.151 2.001 1.322 3.184z"/><path d="m59 56c0-1.302-.839-2.402-2-2.816v-7.184c0-3.86-3.14-7-7-7h-2.026c-.914-1.207-2.348-2-3.974-2h-1v-.242c0-2.634-2.059-4.826-4.688-4.99l-4.453-.278c-.522-3.689-2.462-6.956-5.323-9.179l.331-2.311h.133c2.757 0 5-2.243 5-5v-1.586l1.173-1.173-1.822-4.556c1.006-.916 1.649-2.222 1.649-3.685 0-1.654-1.346-3-3-3h-5.046c-4.937 0-8.954 4.017-8.954 8.954v.661c0 3.452 1.941 6.535 5 8.035v1.782c-.891.534-1.659 1.212-2.275 2.007-.66-1.99-2.517-3.439-4.725-3.439h-8c-.882 0-1.716.386-2.288 1.06-.571.673-.816 1.563-.671 2.44.234 1.425 1.554 2.5 3.071 2.5h6.888v12.363c-5.724 1.36-10 6.503-10 12.637 0 7.168 5.832 13 13 13 6.831 0 12.436-5.299 12.949-12h10.161c-1.3 1.272-2.11 3.042-2.11 5 0 3.86 3.14 7 7 7 2.785 0 5.189-1.639 6.315-4h6.685zm-9-15c2.757 0 5 2.243 5 5v7h-2.685c-.381-.799-.907-1.513-1.547-2.111.585-.156 1.119-.477 1.52-.949.571-.673.816-1.563.671-2.44-.234-1.425-1.554-2.5-3.071-2.5h-.888v-3c0-.342-.035-.677-.101-1zm-6-2c1.654 0 3 1.346 3 3v3h-2v-2c0-1.103-.897-2-2-2h-15.641c-.734-.764-1.562-1.433-2.463-2h2.805 15.299zm-15.063 4h14.063v2h-13.003c-.293-.702-.653-1.367-1.06-2zm-7.937-7.162c.354.428.743.815 1.161 1.162h-1.161zm20 .92v.242h-4v-3.311l1.187.074c1.578.099 2.813 1.415 2.813 2.995zm-8.173-24.999-.827.827v2.414c0 1.654-1.346 3-3 3h-1.867l-.443 3.099c-.541-.299-1.104-.564-1.69-.793v-2.207l1.659-8.295c.093-.466.506-.804.981-.804h2.36c.565 0 1.1-.115 1.607-.289zm-12.827-1.144v-.661c0-3.834 3.12-6.954 6.954-6.954h5.046c.551 0 1 .449 1 1 0 1.654-1.346 3-3 3h-2.36c-1.425 0-2.663 1.014-2.942 2.412l-1.421 7.107c-2.024-1.252-3.277-3.459-3.277-5.904zm4.085 11.475c4.063 1.512 6.984 5.044 7.729 9.271l-3.561-.223c-.874-.055-1.604-.662-1.815-1.511l-.468-1.871-1.94.485.468 1.871c.424 1.698 1.884 2.912 3.631 3.021l6.871.431v3.436h-7.298c-2.047 0-3.954-.917-5.233-2.515-.948-1.184-1.469-2.671-1.469-4.187v-2.826c0-2.24 1.172-4.266 3.085-5.382zm-9.085.91h-6.888c-.539 0-1.021-.362-1.097-.825-.05-.302.029-.593.223-.821.19-.225.469-.354.762-.354h8c1.654 0 3 1.346 3 3v3.472 2.826 6.752c-.331-.025-.662-.05-1-.05s-.669.025-1 .051v-12.051c0-1.103-.897-2-2-2zm3 38c-6.065 0-11-4.935-11-11s4.935-11 11-11 11 4.935 11 11-4.935 11-11 11zm12.949-12c-.052-.683-.158-1.35-.313-2h19.252c.539 0 1.021.362 1.097.825.05.302-.029.593-.223.821-.19.225-.469.354-.762.354zm15.051 12c-2.757 0-5-2.243-5-5s2.243-5 5-5 5 2.243 5 5-2.243 5-5 5zm11-4h-4.08c.047-.328.08-.66.08-1s-.033-.672-.08-1h3.08c.551 0 1 .449 1 1z"/></g></svg>